<svg xmlns="http://www.w3.org/2000/svg" viewBox="0 0 1024 1024">
  <circle cx="504.9" cy="511.2" r="121.5"/>
  <path d="M8.7 382.6c0 1.6-1.6 4.4-1.6 6 0 13.1 10.3 25 25 25h206.4c10.3 0 17.5-6 21.8-14.7 42.5-93.7 136.1-156.4 242.9-156.4 147.6 0 267.9 119.9 267.9 267.9S651.3 778.3 503.3 778.3c-108.4 0-200.4-64.3-242.9-155.2-4.4-10.3-11.5-16.3-21.8-16.3H32.2c-13.1 0-25 10.3-25 25 0 1.6 0 4.4 1.6 6C65.9 860.1 266.3 1024 504.9 1024c282.2 0 512-229.8 512-512S787.1 0 504.9 0C266.3-.8 65.9 163.1 8.7 382.6z"/>
</svg>
